<?xml version="1.0" encoding="utf-8"?>
<!-- Generator: Adobe Illustrator 21.0.0, SVG Export Plug-In . SVG Version: 6.00 Build 0)  -->
<svg version="1.1" xmlns="http://www.w3.org/2000/svg" xmlns:xlink="http://www.w3.org/1999/xlink" x="0px" y="0px"
	 viewBox="0 0 228.3 90" style="enable-background:new 0 0 228.3 90;" xml:space="preserve">
<g id="Layer_1">
</g>
<g id="Layer_2">
	<g>
		<path d="M124,30.6h-7v27.6h7.1c3.5,0,6.7-1.3,9.5-3.9c2.8-2.6,4.2-5.9,4.2-9.8c0-3.9-1.4-7.3-4.1-9.9C131,32,127.7,30.6,124,30.6z
			"/>
		<path d="M207.8,0H20.5C9.2,0,0,9.2,0,20.5v49C0,80.8,9.2,90,20.5,90h187.3c11.3,0,20.5-9.2,20.5-20.5v-49
			C228.3,9.2,219.1,0,207.8,0z M36.9,64.9c0,1.2,0,2-0.1,2.6c-0.1,0.5-0.3,1.2-0.7,1.9c-0.7,1.3-2.6,2-5.7,2c-3.4,0-5.4-0.9-6-2.8
			c-0.3-0.8-0.4-2-0.4-3.7V24.1c0-1.1,0-2,0.1-2.5c0.1-0.6,0.3-1.2,0.7-1.9c0.7-1.3,2.6-2,5.7-2c3.4,0,5.4,0.9,6.1,2.7
			c0.2,0.8,0.4,2.1,0.4,3.8V64.9z M77.5,38c1.1,0,2,0,2.5,0.1c0.6,0.1,1.2,0.3,1.9,0.7c1.3,0.7,2,2.6,2,5.7c0,3.4-0.9,5.4-2.8,6
			c-0.8,0.3-2.1,0.4-3.8,0.4H63v7.4h22.5c1.1,0,2,0,2.5,0.1c0.6,0.1,1.2,0.3,1.9,0.7c1.3,0.7,2,2.6,2,5.7c0,3.4-0.9,5.4-2.7,6
			c-0.8,0.3-2.1,0.4-3.8,0.4h-29c-3.4,0-5.4-0.9-6-2.8c-0.3-0.8-0.4-2-0.4-3.7V24.1c0-2.5,0.5-4.2,1.4-5.1c0.9-0.9,2.7-1.4,5.3-1.4
			h28.8c1.1,0,2,0,2.5,0.1c0.6,0.1,1.2,0.3,1.9,0.7c1.3,0.7,2,2.6,2,5.7c0,3.4-0.9,5.4-2.7,6c-0.8,0.3-2.1,0.4-3.8,0.4H63V38H77.5z
			 M142.9,63.3c-5.2,5.3-11.6,8-19.1,8h-13.4c-3,0-4.8-0.6-5.6-1.8c-0.6-1-0.9-2.6-0.9-4.7V24.1c0-1.2,0-2,0.1-2.6
			c0.1-0.5,0.3-1.2,0.7-1.9c0.7-1.3,2.6-2,5.7-2l13.5,0.1c7.1,0,13.3,2.5,18.6,7.6c5.4,5.1,8,11.4,8,18.8
			C150.8,51.6,148.2,57.9,142.9,63.3z M176.2,51.2c1,2,2.2,3.5,3.7,4.6c3,2.1,6.1,3.2,9.3,3.2c1.5,0,2.9-0.2,4.3-0.6
			c1.3-0.4,2.3-0.8,2.9-1.2l1.3-1c1.7-1,2.8-1.5,3.5-1.5c1.5,0,3.1,1.4,4.9,4.1c1.1,1.7,1.6,3.1,1.6,4.1c0,1-0.3,1.9-1,2.6
			s-1.4,1.3-2.3,1.8c-0.9,0.5-1.7,1-2.5,1.5s-2.5,1.1-4.9,1.9s-4.9,1.2-7.2,1.2c-2.3,0-4.7-0.3-7-0.9c-2.4-0.6-4.8-1.6-7.3-3.1
			c-2.5-1.4-4.8-3.2-6.8-5.3c-2-2.1-3.6-4.7-4.9-8c-1.3-3.2-1.9-6.8-1.9-10.6s0.6-7.3,1.9-10.3c1.3-3.1,2.9-5.7,4.9-7.7
			c2-2,4.2-3.7,6.8-5.1c4.8-2.6,9.6-3.9,14.4-3.9c2.3,0,4.6,0.4,7,1.1c2.4,0.7,4.2,1.4,5.4,2.2l1.8,1c0.9,0.5,1.6,1,2,1.3
			c1.3,1,1.9,2.2,1.9,3.5c0,1.3-0.5,2.6-1.5,4.1c-1.9,2.6-3.6,3.9-5.1,3.9c-0.9,0-2.1-0.5-3.7-1.6c-2-1.7-4.8-2.5-8.2-2.5
			c-3.2,0-6.3,1.1-9.4,3.3c-1.5,1.1-2.7,2.6-3.7,4.5c-1,2-1.5,4.2-1.5,6.6C174.7,47,175.2,49.2,176.2,51.2z"/>
	</g>
</g>
</svg>
